<?xml version="1.0" encoding="iso-8859-1"?>
<!-- Generator: Adobe Illustrator 19.0.0, SVG Export Plug-In . SVG Version: 6.00 Build 0)  -->
<svg xmlns="http://www.w3.org/2000/svg" xmlns:xlink="http://www.w3.org/1999/xlink" version="1.1" id="Capa_1" x="0px" y="0px" viewBox="0 0 481.647 481.647" style="enable-background:new 0 0 481.647 481.647;" xml:space="preserve" width="512px" height="512px">
<g>
	<g>
		<g>
			<path d="M476.716,13.605c-0.327-0.136-0.663-0.25-1.005-0.342L444.823,4.96c-2.584-0.692-5.343-0.047-7.352,1.72l-105.12,92.424     l-60-16.072l47.8-49.432c3.071-3.176,2.986-8.241-0.19-11.312c-0.977-0.944-2.177-1.624-3.49-1.976l-30.912-8.272     c-1.671-0.447-3.442-0.341-5.048,0.304l-108.88,43.72L116.143,41.2C70.543,29,29.975,45.704,1.895,88.232     c-0.484,0.711-0.846,1.498-1.072,2.328c-3.417,12.755,4.111,25.875,16.848,29.36l150.4,42.816l55.576,63.2     c1.042,1.187,2.411,2.038,3.936,2.448l30.912,8.28c4.267,1.145,8.655-1.387,9.799-5.654c0.513-1.911,0.299-3.943-0.599-5.706     l-21.272-41.864c12.489,2.915,25.263,4.436,38.088,4.536c21.585-0.815,43.03-3.836,64-9.016l21.904-4.488l48.656,38.28     c3.468,2.738,8.499,2.145,11.236-1.323c2.032-2.574,2.287-6.127,0.644-8.965l-22.296-38.544l37.696-19.944     c3.906-2.066,5.397-6.906,3.332-10.812c-1.041-1.968-2.854-3.413-5.004-3.988l-6.64-1.776l42.992-103.336     C482.728,19.984,480.796,15.302,476.716,13.605z M284.023,28.16l15.2,4.072l-44.56,46.064l-57.28-15.336L284.023,28.16z      M363.783,148.96l20.976,5.6l11.52,19.952L363.783,148.96z M400.647,150.096l-3.688-6.4c-1.06-1.837-2.807-3.178-4.856-3.728     L330.28,123.36c-4.268-1.144-8.655,1.388-9.798,5.656c-0.829,3.092,0.266,6.381,2.782,8.36l30.648,24.104l-8.648,1.776     c-42.792,8.76-64.272,13.16-105.744,2.056l-2.72-0.728l-1.768-3.464l-11.272-22.136l-4.88-9.6l-14.256,7.264l40.696,79.888     l-11.2-3.008l-93.6-106.488l-12,10.56l20.136,22.904l-126.704-36c-3.854-1.035-6.356-4.752-5.864-8.712     c5.682-8.554,12.49-16.303,20.24-23.04l48.68,9.808l3.152-15.688l-32.52-6.56c17.74-7.974,37.763-9.272,56.384-3.656     l308.8,82.704L400.647,150.096z M422.423,123.224l-71.528-19.152l93.928-82.528l17.952,4.8L422.423,123.224z" fill="#ee6e73"/>
			
				<rect x="109.529" y="74.991" transform="matrix(-0.9659 -0.259 0.259 -0.9659 209.5587 193.5882)" width="16.002" height="16.002" fill="#ee6e73"/>
			<rect x="140.402" y="83.288" transform="matrix(0.9659 0.2588 -0.2588 0.9659 28.6839 -35.2986)" width="16" height="16" fill="#ee6e73"/>
			<rect x="171.312" y="91.533" transform="matrix(0.9659 0.2588 -0.2588 0.9659 31.8708 -43.0178)" width="16" height="16" fill="#ee6e73"/>
			<rect x="202.269" y="99.82" transform="matrix(0.9659 0.259 -0.259 0.9659 35.0959 -50.7758)" width="16.002" height="16.002" fill="#ee6e73"/>
			
				<rect x="233.199" y="108.089" transform="matrix(0.9659 0.259 -0.259 0.9659 38.2925 -58.5035)" width="16.002" height="16.002" fill="#ee6e73"/>
			<rect x="384.023" y="364.96" width="16" height="16" fill="#ee6e73"/>
			<rect x="352.023" y="364.96" width="16" height="16" fill="#ee6e73"/>
			<path d="M240.023,268.96c-57.438,0-104,46.562-104,104s46.562,104,104,104s104-46.562,104-104     C343.957,315.549,297.434,269.026,240.023,268.96z M240.023,460.96c-48.601,0-88-39.399-88-88c0-48.601,39.399-88,88-88     s88,39.399,88,88C327.966,421.537,288.601,460.902,240.023,460.96z" fill="#ee6e73"/>
			<path d="M240.023,292.96c-44.183,0-80,35.817-80,80c0,44.183,35.817,80,80,80s80-35.817,80-80     C319.975,328.797,284.186,293.008,240.023,292.96z M303.471,380.96c-3.692,28.957-26.491,51.756-55.448,55.448V420.96h-16v15.448     c-28.957-3.692-51.756-26.491-55.448-55.448h15.448v-16h-15.448c3.692-28.957,26.491-51.756,55.448-55.448v15.448h16v-15.448     c28.957,3.692,51.756,26.491,55.448,55.448h-15.448v16H303.471z" fill="#ee6e73"/>
			
				<rect x="248.014" y="334.343" transform="matrix(-0.7071 -0.7071 0.7071 -0.7071 184.6279 790.418)" width="16" height="45.256" fill="#ee6e73"/>
			<path d="M388.023,260.96h44c26.499-0.026,47.974-21.501,48-48h-16c0,17.673-14.327,32-32,32h-44c-19.882,0-36,16.118-36,36     s16.118,36,36,36h52c13.255,0,24,10.745,24,24s-10.745,24-24,24h-24v16h24c22.091,0,40-17.909,40-40c0-22.091-17.909-40-40-40     h-52c-11.046,0-20-8.954-20-20C368.023,269.914,376.978,260.96,388.023,260.96z" fill="#ee6e73"/>
		</g>
	</g>
</g>
<g>
</g>
<g>
</g>
<g>
</g>
<g>
</g>
<g>
</g>
<g>
</g>
<g>
</g>
<g>
</g>
<g>
</g>
<g>
</g>
<g>
</g>
<g>
</g>
<g>
</g>
<g>
</g>
<g>
</g>
</svg>
